<svg width="24" height="24" viewBox="0 0 24 24" fill="none" xmlns="http://www.w3.org/2000/svg">
<path d="M13.4508 0.625991C13.4508 1.46044 12.8349 2.13699 12.075 2.13699C11.3151 2.13699 10.6992 1.46044 10.6992 0.625991C10.6992 -0.208664 13.4508 -0.208664 13.4508 0.625991Z" fill="white"/>
<path d="M12.0775 2.30078C6.50543 2.30078 1.98828 6.86387 1.98828 12.4926H22.1666C22.1666 6.86387 17.6495 2.30078 12.0775 2.30078Z" fill="white"/>
<path d="M23.3066 14.6298H0.693378C0.310473 14.6298 0 14.2948 0 13.8817V13.4054C0 12.9922 0.310473 12.6572 0.693378 12.6572H23.3066C23.6895 12.6572 24 12.9922 24 13.4054V13.8817C24 14.2948 23.6895 14.6298 23.3066 14.6298Z" fill="white"/>
<path d="M5.9061 23.1775L6.07235 22.4074C6.30707 21.3216 7.09973 20.4591 8.09212 20.2102C9.14068 19.9472 10.3481 20.1117 11.1652 20.2586C12.0868 20.4239 13.055 20.3673 13.9651 20.0949L15.3004 19.6952C16.143 19.4428 16.9188 19.0179 17.6058 18.432L19.9089 16.2225C20.5088 15.7433 20.0647 14.2619 18.9676 15.0011L16.7006 16.6265L14.458 17.329L12.8664 17.3664L13.9394 16.751C14.3468 16.524 14.5212 15.9899 14.3364 15.5353C14.2723 15.3778 14.1683 15.2428 14.0353 15.1451C13.8359 14.9984 13.585 14.9451 13.3467 14.999L10.2015 15.7093L7.80028 15.0078C7.45719 14.9074 7.1194 14.7843 6.77082 14.7945C5.87716 14.821 4.98936 15.2805 4.32872 15.9602L4.32134 15.9678L1.375 19.8433L5.9061 23.1775Z" fill="white"/>
<path d="M6.75085 21.7028L2.1283 18.3643C1.83695 18.1538 1.44012 18.2345 1.24236 18.5446L0.56701 19.6036C0.369443 19.9134 0.445299 20.3345 0.736461 20.5447L5.35901 23.8833C5.65036 24.0937 6.04719 24.0131 6.24495 23.703L6.9203 22.6439C7.11787 22.3342 7.04201 21.9131 6.75085 21.7028Z" fill="white"/>
<path d="M6.74698 21.6794L4.9351 20.3838L3.51562 22.5871L5.32674 23.8821C5.61345 24.0872 5.99989 24.0178 6.20804 23.7317L6.93953 22.596C7.11494 22.2869 7.03349 21.8843 6.74698 21.6794Z" fill="white"/>
</svg>
