<svg width="24" height="24" viewBox="0 0 24 24" fill="none" xmlns="http://www.w3.org/2000/svg">
<path d="M22.8085 10.3018L21.5938 17.9319H23.5549C23.8297 17.9319 24.0387 17.6851 23.9935 17.4141L22.8085 10.3018Z" fill="white"/>
<path d="M0.444787 17.9321H19.5718C19.7905 17.9321 19.9767 17.7732 20.011 17.5573L21.7581 6.583C21.8011 6.31291 21.5924 6.06836 21.319 6.06836H2.19683C1.9783 6.06836 1.79212 6.22717 1.75766 6.44298L0.00566249 17.4173C-0.0374625 17.6875 0.171225 17.9321 0.444787 17.9321ZM4.03424 9.57184H18.1807C18.6287 9.57184 18.9918 9.93498 18.9918 10.383C18.9918 10.831 18.6287 11.1941 18.1807 11.1941H4.03424C3.58626 11.1941 3.22312 10.831 3.22312 10.383C3.22312 9.93498 3.58626 9.57184 4.03424 9.57184ZM3.46522 12.9189H17.5913C18.0393 12.9189 18.4025 13.282 18.4025 13.73C18.4025 14.178 18.0393 14.5411 17.5913 14.5411H3.46522C3.01724 14.5411 2.6541 14.178 2.6541 13.73C2.6541 13.282 3.01724 12.9189 3.46522 12.9189Z" fill="white"/>
</svg>
