<svg width="24" height="12" viewBox="0 0 24 12" fill="none" xmlns="http://www.w3.org/2000/svg">
<path d="M22.8085 4.30176L21.5938 11.9319H23.5549C23.8297 11.9319 24.0387 11.6851 23.9935 11.4141L22.8085 4.30176Z" fill="white"/>
<path d="M0.444787 11.9321H19.5718C19.7905 11.9321 19.9767 11.7732 20.011 11.5573L21.7581 0.583C21.8011 0.312906 21.5924 0.0683594 21.319 0.0683594H2.19683C1.9783 0.0683594 1.79212 0.227172 1.75766 0.442985L0.00566249 11.4173C-0.0374625 11.6875 0.171225 11.9321 0.444787 11.9321ZM4.03424 3.57184H18.1807C18.6287 3.57184 18.9918 3.93498 18.9918 4.38297C18.9918 4.83095 18.6287 5.19409 18.1807 5.19409H4.03424C3.58626 5.19409 3.22312 4.83095 3.22312 4.38297C3.22312 3.93498 3.58626 3.57184 4.03424 3.57184ZM3.46522 6.91886H17.5913C18.0393 6.91886 18.4025 7.282 18.4025 7.72998C18.4025 8.17797 18.0393 8.54111 17.5913 8.54111H3.46522C3.01724 8.54111 2.6541 8.17797 2.6541 7.72998C2.6541 7.282 3.01724 6.91886 3.46522 6.91886Z" fill="white"/>
</svg>
