<svg width="24" height="24" viewBox="0 0 24 24" fill="none" xmlns="http://www.w3.org/2000/svg">
<path d="M17.4062 22.5H19.3456L18.3759 21.5303L17.4062 22.5Z" fill="#494949"/>
<path d="M17.25 2.625C17.2439 2.23944 17.3164 1.85668 17.4629 1.5H4.875C4.8008 1.5 4.5 1.86183 4.5 2.625C4.5 3.38817 4.8008 3.75 4.875 3.75H17.4629C17.3164 3.39332 17.2439 3.01056 17.25 2.625Z" fill="#494949"/>
<path d="M18.375 3.75C18.5821 3.75 18.75 3.24632 18.75 2.625C18.75 2.00368 18.5821 1.5 18.375 1.5C18.1679 1.5 18 2.00368 18 2.625C18 3.24632 18.1679 3.75 18.375 3.75Z" fill="#494949"/>
<path d="M16.125 11.0596C16.125 10.9064 16.1438 10.7537 16.1809 10.605L17.7072 4.5H5.73028L4.15861 10.7868C4.13629 10.876 4.12501 10.9677 4.125 11.0596V22.5H16.125V11.0596ZM10.125 12.375H10.1243C10.1246 12.4332 10.1112 12.4906 10.0854 12.5427L9.37969 13.954L9.69183 19.7986C9.7023 19.9524 9.68104 20.1067 9.62938 20.252C9.57772 20.3972 9.49676 20.5303 9.39152 20.643C9.28627 20.7556 9.159 20.8455 9.01759 20.9069C8.87619 20.9683 8.72367 21 8.5695 21H7.9305C7.77632 21 7.62379 20.9683 7.48238 20.9069C7.34096 20.8455 7.21367 20.7557 7.10842 20.643C7.00317 20.5304 6.9222 20.3973 6.87053 20.252C6.81886 20.1067 6.79761 19.9524 6.80808 19.7986L7.12031 13.954L6.4147 12.5427C6.38886 12.4906 6.37554 12.4332 6.3758 12.375H6.375V10.875C6.375 10.7755 6.41451 10.6802 6.48483 10.6098C6.55516 10.5395 6.65054 10.5 6.75 10.5C6.84946 10.5 6.94484 10.5395 7.01517 10.6098C7.08549 10.6802 7.125 10.7755 7.125 10.875V12H7.875V10.875C7.875 10.7755 7.91451 10.6802 7.98483 10.6098C8.05516 10.5395 8.15054 10.5 8.25 10.5C8.34946 10.5 8.44484 10.5395 8.51517 10.6098C8.58549 10.6802 8.625 10.7755 8.625 10.875V12H9.375V10.875C9.375 10.7755 9.41451 10.6802 9.48483 10.6098C9.55516 10.5395 9.65054 10.5 9.75 10.5C9.84946 10.5 9.94484 10.5395 10.0152 10.6098C10.0855 10.6802 10.125 10.7755 10.125 10.875V12.375ZM13.5053 20.6297C13.3998 20.7462 13.2711 20.8393 13.1275 20.9031C12.9838 20.9668 12.8284 20.9999 12.6713 21H12.0787C11.9221 21 11.7672 20.9674 11.624 20.9041C11.4807 20.8408 11.3522 20.7483 11.2468 20.6325C11.1413 20.5167 11.0612 20.3802 11.0116 20.2317C10.9619 20.0831 10.9438 19.9259 10.9584 19.77L11.25 15.3627V15.2318L10.7073 14.9604C10.6407 14.9271 10.5856 14.8748 10.5488 14.8101C10.5121 14.7454 10.4955 14.6712 10.501 14.597C10.5136 14.4297 10.8346 10.5001 13.125 10.5001C13.2245 10.5001 13.3198 10.5396 13.3902 10.6099C13.4605 10.6803 13.5 10.7756 13.5 10.8751V15.3628L13.7914 19.7701C13.8058 19.9254 13.7878 20.0819 13.7385 20.2299C13.6893 20.3779 13.6099 20.514 13.5053 20.6297Z" fill="#494949"/>
<path d="M16.9086 10.7866C16.8863 10.8759 16.875 10.9675 16.875 11.0595V21.9695L18 20.8445V11.6248C18 11.5254 18.0395 11.43 18.1098 11.3597C18.1802 11.2893 18.2755 11.2498 18.375 11.2498C18.4745 11.2498 18.5698 11.2893 18.6402 11.3597C18.7105 11.43 18.75 11.5254 18.75 11.6248V20.8445L19.875 21.9695V11.0595C19.875 10.9674 19.8637 10.8758 19.8414 10.7865L18.375 4.9209L16.9086 10.7866Z" fill="#494949"/>
</svg>
